<svg version="1.1" xmlns="http://www.w3.org/2000/svg" xmlns:xlink="http://www.w3.org/1999/xlink" width="579.298828125" height="375"><defs/><g><g transform="translate(-10,-10) scale(1,1)"><rect fill="#C0C0C0" stroke="none" x="115.233642578125" y="358" width="183.25439453125" height="24" opacity="0.2"/></g><g transform="translate(-10,-10) scale(1,1)"><rect fill="#C0C0C0" stroke="none" x="144.233642578125" y="220" width="163.25439453125" height="142" opacity="0.2"/></g><g transform="translate(-10,-10) scale(1,1)"><rect fill="#ffffff" stroke="none" x="108.233642578125" y="351" width="183.25439453125" height="24"/></g><g transform="translate(-10,-10) scale(1,1)"><path fill="none" stroke="#000000" d="M 108.233642578125 351 L 291.488037109375 351 L 291.488037109375 375 L 108.233642578125 375 L 108.233642578125 351 Z Z" stroke-miterlimit="10"/></g><g transform="translate(-10,-10) scale(1,1)"><g><path fill="none" stroke="none"/><text fill="#000000" stroke="none" font-family="Arial" font-size="13px" font-style="normal" font-weight="bold" text-decoration="none" x="135.200439453125" y="370.5">AndToXorTransformer</text></g></g><g transform="translate(-10,-10) scale(1,1)"><rect fill="#ffffff" stroke="none" x="137.233642578125" y="213" width="163.25439453125" height="142"/></g><g transform="translate(-10,-10) scale(1,1)"><path fill="none" stroke="#000000" d="M 137.233642578125 213 L 300.488037109375 213 L 300.488037109375 355 L 137.233642578125 355 L 137.233642578125 213 Z Z" stroke-miterlimit="10" stroke-dasharray="3"/></g><g transform="translate(-10,-10) scale(1,1)"><g><path fill="none" stroke="none"/><text fill="#000000" stroke="none" font-family="Arial" font-size="13px" font-style="normal" font-weight="normal" text-decoration="none" x="142.233642578125" y="230.5">P: AbstractPlace&lt;F</text></g></g><g transform="translate(-10,-10) scale(1,1)"><g><path fill="none" stroke="none"/><text fill="#000000" stroke="none" font-family="Arial" font-size="13px" font-style="normal" font-weight="normal" text-decoration="none" x="142.233642578125" y="245.5">S&gt;</text></g></g><g transform="translate(-10,-10) scale(1,1)"><g><path fill="none" stroke="none"/><text fill="#000000" stroke="none" font-family="Arial" font-size="13px" font-style="normal" font-weight="normal" text-decoration="none" x="142.233642578125" y="260.5">T: AbstractTransition&lt;F</text></g></g><g transform="translate(-10,-10) scale(1,1)"><g><path fill="none" stroke="none"/><text fill="#000000" stroke="none" font-family="Arial" font-size="13px" font-style="normal" font-weight="normal" text-decoration="none" x="142.233642578125" y="275.5">S&gt;</text></g></g><g transform="translate(-10,-10) scale(1,1)"><g><path fill="none" stroke="none"/><text fill="#000000" stroke="none" font-family="Arial" font-size="13px" font-style="normal" font-weight="normal" text-decoration="none" x="142.233642578125" y="290.5">F: AbstractFlowRelation&lt;P</text></g></g><g transform="translate(-10,-10) scale(1,1)"><g><path fill="none" stroke="none"/><text fill="#000000" stroke="none" font-family="Arial" font-size="13px" font-style="normal" font-weight="normal" text-decoration="none" x="142.233642578125" y="305.5">T</text></g></g><g transform="translate(-10,-10) scale(1,1)"><g><path fill="none" stroke="none"/><text fill="#000000" stroke="none" font-family="Arial" font-size="13px" font-style="normal" font-weight="normal" text-decoration="none" x="142.233642578125" y="320.5">S&gt;</text></g></g><g transform="translate(-10,-10) scale(1,1)"><g><path fill="none" stroke="none"/><text fill="#000000" stroke="none" font-family="Arial" font-size="13px" font-style="normal" font-weight="normal" text-decoration="none" x="142.233642578125" y="335.5">M: AbstractMarking&lt;S&gt;</text></g></g><g transform="translate(-10,-10) scale(1,1)"><g><path fill="none" stroke="none"/><text fill="#000000" stroke="none" font-family="Arial" font-size="13px" font-style="normal" font-weight="normal" text-decoration="none" x="142.233642578125" y="350.5">S: Object</text></g></g><g transform="translate(-10,-10) scale(1,1)"><rect fill="#C0C0C0" stroke="none" x="27" y="96" width="169.36083984375" height="24" opacity="0.2"/></g><g transform="translate(-10,-10) scale(1,1)"><rect fill="#ffffff" stroke="none" x="20" y="89" width="169.36083984375" height="24"/></g><g transform="translate(-10,-10) scale(1,1)"><path fill="none" stroke="#000000" d="M 20 89 L 189.36083984375 89 L 189.36083984375 113 L 20 113 L 20 89 Z Z" stroke-miterlimit="10"/></g><g transform="translate(-10,-10) scale(1,1)"><g><path fill="none" stroke="none"/><text fill="#000000" stroke="none" font-family="Arial" font-size="13px" font-style="normal" font-weight="bold" text-decoration="none" x="30.27001953125" y="108.5">PNTransformationFactory</text></g></g><g transform="translate(-10,-10) scale(1,1)"><rect fill="#C0C0C0" stroke="none" x="227.36083984375" y="165" width="183.25439453125" height="24" opacity="0.2"/></g><g transform="translate(-10,-10) scale(1,1)"><rect fill="#C0C0C0" stroke="none" x="256.36083984375" y="27" width="163.25439453125" height="142" opacity="0.2"/></g><g transform="translate(-10,-10) scale(1,1)"><rect fill="#ffffff" stroke="none" x="220.36083984375" y="158" width="183.25439453125" height="24"/></g><g transform="translate(-10,-10) scale(1,1)"><path fill="none" stroke="#000000" d="M 220.36083984375 158 L 403.615234375 158 L 403.615234375 182 L 220.36083984375 182 L 220.36083984375 158 Z Z" stroke-miterlimit="10"/></g><g transform="translate(-10,-10) scale(1,1)"><g><path fill="none" stroke="none"/><text fill="#000000" stroke="none" font-family="Arial" font-size="13px" font-style="italic" font-weight="bold" text-decoration="none" x="267.56396484375" y="177.5">PNTransformer</text></g></g><g transform="translate(-10,-10) scale(1,1)"><rect fill="#ffffff" stroke="none" x="249.36083984375" y="20" width="163.25439453125" height="142"/></g><g transform="translate(-10,-10) scale(1,1)"><path fill="none" stroke="#000000" d="M 249.36083984375 20 L 412.615234375 20 L 412.615234375 162 L 249.36083984375 162 L 249.36083984375 20 Z Z" stroke-miterlimit="10" stroke-dasharray="3"/></g><g transform="translate(-10,-10) scale(1,1)"><g><path fill="none" stroke="none"/><text fill="#000000" stroke="none" font-family="Arial" font-size="13px" font-style="normal" font-weight="normal" text-decoration="none" x="254.36083984375" y="37.5">P: AbstractPlace&lt;F</text></g></g><g transform="translate(-10,-10) scale(1,1)"><g><path fill="none" stroke="none"/><text fill="#000000" stroke="none" font-family="Arial" font-size="13px" font-style="normal" font-weight="normal" text-decoration="none" x="254.36083984375" y="52.5">S&gt;</text></g></g><g transform="translate(-10,-10) scale(1,1)"><g><path fill="none" stroke="none"/><text fill="#000000" stroke="none" font-family="Arial" font-size="13px" font-style="normal" font-weight="normal" text-decoration="none" x="254.36083984375" y="67.5">T: AbstractTransition&lt;F</text></g></g><g transform="translate(-10,-10) scale(1,1)"><g><path fill="none" stroke="none"/><text fill="#000000" stroke="none" font-family="Arial" font-size="13px" font-style="normal" font-weight="normal" text-decoration="none" x="254.36083984375" y="82.5">S&gt;</text></g></g><g transform="translate(-10,-10) scale(1,1)"><g><path fill="none" stroke="none"/><text fill="#000000" stroke="none" font-family="Arial" font-size="13px" font-style="normal" font-weight="normal" text-decoration="none" x="254.36083984375" y="97.5">F: AbstractFlowRelation&lt;P</text></g></g><g transform="translate(-10,-10) scale(1,1)"><g><path fill="none" stroke="none"/><text fill="#000000" stroke="none" font-family="Arial" font-size="13px" font-style="normal" font-weight="normal" text-decoration="none" x="254.36083984375" y="112.5">T</text></g></g><g transform="translate(-10,-10) scale(1,1)"><g><path fill="none" stroke="none"/><text fill="#000000" stroke="none" font-family="Arial" font-size="13px" font-style="normal" font-weight="normal" text-decoration="none" x="254.36083984375" y="127.5">S&gt;</text></g></g><g transform="translate(-10,-10) scale(1,1)"><g><path fill="none" stroke="none"/><text fill="#000000" stroke="none" font-family="Arial" font-size="13px" font-style="normal" font-weight="normal" text-decoration="none" x="254.36083984375" y="142.5">M: AbstractMarking&lt;S&gt;</text></g></g><g transform="translate(-10,-10) scale(1,1)"><g><path fill="none" stroke="none"/><text fill="#000000" stroke="none" font-family="Arial" font-size="13px" font-style="normal" font-weight="normal" text-decoration="none" x="254.36083984375" y="157.5">S: Object</text></g></g><g transform="translate(-10,-10) scale(1,1)"><path fill="none" stroke="#000000" d="M 205 212 Q 205 198 222 183" stroke-miterlimit="10"/></g><g transform="translate(-10,-10) scale(1,1)"><path fill="#FFFFFF" stroke="none" d="M 212.3294994181356 202.76060268554986 L 222 183 L 201.1890673018098 190.13477962038064"/></g><g transform="translate(-10,-10) scale(1,1)"><path fill="none" stroke="#000000" d="M 212.3294994181356 202.76060268554986 L 222 183 L 201.1890673018098 190.13477962038064 L 212.3294994181356 202.76060268554986" stroke-miterlimit="10"/></g><g transform="translate(-10,-10) scale(1,1)"><rect fill="#C0C0C0" stroke="none" x="451.615234375" y="89.5" width="134.68359375" height="37" opacity="0.2"/></g><g transform="translate(-10,-10) scale(1,1)"><rect fill="#ffffff" stroke="none" x="444.615234375" y="82.5" width="134.68359375" height="37"/></g><g transform="translate(-10,-10) scale(1,1)"><path fill="none" stroke="#000000" d="M 444.615234375 82.5 L 579.298828125 82.5 L 579.298828125 119.5 L 444.615234375 119.5 L 444.615234375 82.5 Z Z" stroke-miterlimit="10"/></g><g transform="translate(-10,-10) scale(1,1)"><g><path fill="none" stroke="none"/><text fill="#000000" stroke="none" font-family="Arial" font-size="13px" font-style="normal" font-weight="normal" text-decoration="none" x="468.593017578125" y="100">«enumeration»</text></g></g><g transform="translate(-10,-10) scale(1,1)"><g><path fill="none" stroke="none"/><text fill="#000000" stroke="none" font-family="Arial" font-size="13px" font-style="normal" font-weight="bold" text-decoration="none" x="453.796630859375" y="115">TransformationType</text></g></g><g transform="translate(-10,-10) scale(1,1)"><rect fill="#C0C0C0" stroke="none" x="339.488037109375" y="358" width="183.25439453125" height="24" opacity="0.2"/></g><g transform="translate(-10,-10) scale(1,1)"><rect fill="#C0C0C0" stroke="none" x="368.488037109375" y="220" width="163.25439453125" height="142" opacity="0.2"/></g><g transform="translate(-10,-10) scale(1,1)"><rect fill="#ffffff" stroke="none" x="332.488037109375" y="351" width="183.25439453125" height="24"/></g><g transform="translate(-10,-10) scale(1,1)"><path fill="none" stroke="#000000" d="M 332.488037109375 351 L 515.742431640625 351 L 515.742431640625 375 L 332.488037109375 375 L 332.488037109375 351 Z Z" stroke-miterlimit="10"/></g><g transform="translate(-10,-10) scale(1,1)"><g><path fill="none" stroke="none"/><text fill="#000000" stroke="none" font-family="Arial" font-size="13px" font-style="normal" font-weight="bold" text-decoration="none" x="359.454833984375" y="370.5">XorToAndTransformer</text></g></g><g transform="translate(-10,-10) scale(1,1)"><rect fill="#ffffff" stroke="none" x="361.488037109375" y="213" width="163.25439453125" height="142"/></g><g transform="translate(-10,-10) scale(1,1)"><path fill="none" stroke="#000000" d="M 361.488037109375 213 L 524.742431640625 213 L 524.742431640625 355 L 361.488037109375 355 L 361.488037109375 213 Z Z" stroke-miterlimit="10" stroke-dasharray="3"/></g><g transform="translate(-10,-10) scale(1,1)"><g><path fill="none" stroke="none"/><text fill="#000000" stroke="none" font-family="Arial" font-size="13px" font-style="normal" font-weight="normal" text-decoration="none" x="366.488037109375" y="230.5">P: AbstractPlace&lt;F</text></g></g><g transform="translate(-10,-10) scale(1,1)"><g><path fill="none" stroke="none"/><text fill="#000000" stroke="none" font-family="Arial" font-size="13px" font-style="normal" font-weight="normal" text-decoration="none" x="366.488037109375" y="245.5">S&gt;</text></g></g><g transform="translate(-10,-10) scale(1,1)"><g><path fill="none" stroke="none"/><text fill="#000000" stroke="none" font-family="Arial" font-size="13px" font-style="normal" font-weight="normal" text-decoration="none" x="366.488037109375" y="260.5">T: AbstractTransition&lt;F</text></g></g><g transform="translate(-10,-10) scale(1,1)"><g><path fill="none" stroke="none"/><text fill="#000000" stroke="none" font-family="Arial" font-size="13px" font-style="normal" font-weight="normal" text-decoration="none" x="366.488037109375" y="275.5">S&gt;</text></g></g><g transform="translate(-10,-10) scale(1,1)"><g><path fill="none" stroke="none"/><text fill="#000000" stroke="none" font-family="Arial" font-size="13px" font-style="normal" font-weight="normal" text-decoration="none" x="366.488037109375" y="290.5">F: AbstractFlowRelation&lt;P</text></g></g><g transform="translate(-10,-10) scale(1,1)"><g><path fill="none" stroke="none"/><text fill="#000000" stroke="none" font-family="Arial" font-size="13px" font-style="normal" font-weight="normal" text-decoration="none" x="366.488037109375" y="305.5">T</text></g></g><g transform="translate(-10,-10) scale(1,1)"><g><path fill="none" stroke="none"/><text fill="#000000" stroke="none" font-family="Arial" font-size="13px" font-style="normal" font-weight="normal" text-decoration="none" x="366.488037109375" y="320.5">S&gt;</text></g></g><g transform="translate(-10,-10) scale(1,1)"><g><path fill="none" stroke="none"/><text fill="#000000" stroke="none" font-family="Arial" font-size="13px" font-style="normal" font-weight="normal" text-decoration="none" x="366.488037109375" y="335.5">M: AbstractMarking&lt;S&gt;</text></g></g><g transform="translate(-10,-10) scale(1,1)"><g><path fill="none" stroke="none"/><text fill="#000000" stroke="none" font-family="Arial" font-size="13px" font-style="normal" font-weight="normal" text-decoration="none" x="366.488037109375" y="350.5">S: Object</text></g></g><g transform="translate(-10,-10) scale(1,1)"><path fill="none" stroke="#000000" d="M 430 212 Q 430 198 412 183" stroke-miterlimit="10"/></g><g transform="translate(-10,-10) scale(1,1)"><path fill="#FFFFFF" stroke="none" d="M 433.00410136153636 189.54428957139788 L 412 183 L 422.22463097148807 202.4796540394558"/></g><g transform="translate(-10,-10) scale(1,1)"><path fill="none" stroke="#000000" d="M 433.00410136153636 189.54428957139788 L 412 183 L 422.22463097148807 202.4796540394558 L 433.00410136153636 189.54428957139788" stroke-miterlimit="10"/></g></g></svg>