<svg version="1.1" xmlns="http://www.w3.org/2000/svg" xmlns:xlink="http://www.w3.org/1999/xlink" width="1593.50927734375" height="123"><defs/><g><g transform="translate(-10,-10) scale(1,1)"><rect fill="#C0C0C0" stroke="none" x="27" y="39" width="165.05078125" height="24" opacity="0.2"/></g><g transform="translate(-10,-10) scale(1,1)"><rect fill="#ffffff" stroke="none" x="20" y="32" width="165.05078125" height="24"/></g><g transform="translate(-10,-10) scale(1,1)"><path fill="none" stroke="#000000" d="M 20 32 L 185.05078125 32 L 185.05078125 56 L 20 56 L 20 32 Z Z" stroke-miterlimit="10"/></g><g transform="translate(-10,-10) scale(1,1)"><g><path fill="none" stroke="none"/><text fill="#000000" stroke="none" font-family="Arial" font-size="13px" font-style="normal" font-weight="bold" text-decoration="none" x="30.628662109375" y="51.5">AccessContextException</text></g></g><g transform="translate(-10,-10) scale(1,1)"><rect fill="#C0C0C0" stroke="none" x="223.05078125" y="32.5" width="102.91357421875" height="37" opacity="0.2"/></g><g transform="translate(-10,-10) scale(1,1)"><rect fill="#ffffff" stroke="none" x="216.05078125" y="25.5" width="102.91357421875" height="37"/></g><g transform="translate(-10,-10) scale(1,1)"><path fill="none" stroke="#000000" d="M 216.05078125 25.5 L 318.96435546875 25.5 L 318.96435546875 62.5 L 216.05078125 62.5 L 216.05078125 25.5 Z Z" stroke-miterlimit="10"/></g><g transform="translate(-10,-10) scale(1,1)"><g><path fill="none" stroke="none"/><text fill="#000000" stroke="none" font-family="Arial" font-size="13px" font-style="normal" font-weight="normal" text-decoration="none" x="224.1435546875" y="43">«enumeration»</text></g></g><g transform="translate(-10,-10) scale(1,1)"><g><path fill="none" stroke="none"/><text fill="#000000" stroke="none" font-family="Arial" font-size="13px" font-style="normal" font-weight="bold" text-decoration="none" x="223.784912109375" y="58">ExecutionState</text></g></g><g transform="translate(-10,-10) scale(1,1)"><rect fill="#C0C0C0" stroke="none" x="356.96435546875" y="39" width="83.41357421875" height="24" opacity="0.2"/></g><g transform="translate(-10,-10) scale(1,1)"><rect fill="#ffffff" stroke="none" x="349.96435546875" y="32" width="83.41357421875" height="24"/></g><g transform="translate(-10,-10) scale(1,1)"><path fill="none" stroke="#000000" d="M 349.96435546875 32 L 433.3779296875 32 L 433.3779296875 56 L 349.96435546875 56 L 349.96435546875 32 Z Z" stroke-miterlimit="10"/></g><g transform="translate(-10,-10) scale(1,1)"><g><path fill="none" stroke="none"/><text fill="#000000" stroke="none" font-family="Arial" font-size="13px" font-style="normal" font-weight="bold" text-decoration="none" x="356.632080078125" y="51.5">FireElement</text></g></g><g transform="translate(-10,-10) scale(1,1)"><rect fill="#C0C0C0" stroke="none" x="351.54345703125" y="106" width="94.25537109375" height="24" opacity="0.2"/></g><g transform="translate(-10,-10) scale(1,1)"><rect fill="#ffffff" stroke="none" x="344.54345703125" y="99" width="94.25537109375" height="24"/></g><g transform="translate(-10,-10) scale(1,1)"><path fill="none" stroke="#000000" d="M 344.54345703125 99 L 438.798828125 99 L 438.798828125 123 L 344.54345703125 123 L 344.54345703125 99 Z Z" stroke-miterlimit="10"/></g><g transform="translate(-10,-10) scale(1,1)"><g><path fill="none" stroke="none"/><text fill="#000000" stroke="none" font-family="Arial" font-size="13px" font-style="normal" font-weight="bold" text-decoration="none" x="351.20166015625" y="118.5">FireSequence</text></g></g><g transform="translate(-10,-10) scale(1,1)"><path fill="none" stroke="#000000" d="M 391 98 Q 392 84 391 57" stroke-miterlimit="10"/></g><g transform="translate(-10,-10) scale(1,1)"><path fill="none" stroke="#000000" d="M 395.58277100829406 66.99991049387641 L 391 57 L 387.1695039351113 67.31151297806836" stroke-miterlimit="10"/></g><g transform="translate(-10,-10) scale(1,1)"><g><path fill="none" stroke="none"/><text fill="#000000" stroke="none" font-family="Arial" font-size="13px" font-style="normal" font-weight="normal" text-decoration="none" x="353" y="90">#entries</text></g></g><g transform="translate(-10,-10) scale(1,1)"><g><path fill="none" stroke="none"/><text fill="#000000" stroke="none" font-family="Arial" font-size="13px" font-style="normal" font-weight="normal" text-decoration="none" x="294" y="93">{collection="LinkedList"}</text></g></g><g transform="translate(-10,-10) scale(1,1)"><g><path fill="none" stroke="none"/><text fill="#000000" stroke="none" font-family="Arial" font-size="13px" font-style="normal" font-weight="normal" text-decoration="none" x="402" y="85">*</text></g></g><g transform="translate(-10,-10) scale(1,1)"><path fill="#C0C0C0" stroke="none" d="M 495.808349609375 38.5 C 495.808349609375 32.1487248 500.957074409375 27 507.308349609375 27 C 513.659624809375 27 518.808349609375 32.1487248 518.808349609375 38.5 C 518.808349609375 44.8512752 513.659624809375 50 507.308349609375 50 C 500.957074409375 50 495.808349609375 44.8512752 495.808349609375 38.5 Z" opacity="0.2"/></g><g transform="translate(-10,-10) scale(1,1)"><path fill="#ffffff" stroke="none" d="M 488.808349609375 31.5 C 488.808349609375 25.1487248 493.957074409375 20 500.308349609375 20 C 506.659624809375 20 511.808349609375 25.1487248 511.808349609375 31.5 C 511.808349609375 37.8512752 506.659624809375 43 500.308349609375 43 C 493.957074409375 43 488.808349609375 37.8512752 488.808349609375 31.5 Z"/></g><g transform="translate(-10,-10) scale(1,1)"><path fill="none" stroke="#000000" d="M 488.808349609375 31.5 C 488.808349609375 25.1487248 493.957074409375 20 500.308349609375 20 C 506.659624809375 20 511.808349609375 25.1487248 511.808349609375 31.5 C 511.808349609375 37.8512752 506.659624809375 43 500.308349609375 43 C 493.957074409375 43 488.808349609375 37.8512752 488.808349609375 31.5 Z" stroke-miterlimit="10"/></g><g transform="translate(-10,-10) scale(1,1)"><g><path fill="none" stroke="none"/><text fill="#000000" stroke="none" font-family="Arial" font-size="13px" font-style="normal" font-weight="bold" text-decoration="none" x="470.683837890625" y="62.5">IResource</text></g></g><g transform="translate(-10,-10) scale(1,1)"><path fill="#C0C0C0" stroke="none" d="M 622.86328125 38.5 C 622.86328125 32.1487248 628.01200605 27 634.36328125 27 C 640.71455645 27 645.86328125 32.1487248 645.86328125 38.5 C 645.86328125 44.8512752 640.71455645 50 634.36328125 50 C 628.01200605 50 622.86328125 44.8512752 622.86328125 38.5 Z" opacity="0.2"/></g><g transform="translate(-10,-10) scale(1,1)"><path fill="#ffffff" stroke="none" d="M 615.86328125 31.5 C 615.86328125 25.1487248 621.01200605 20 627.36328125 20 C 633.71455645 20 638.86328125 25.1487248 638.86328125 31.5 C 638.86328125 37.8512752 633.71455645 43 627.36328125 43 C 621.01200605 43 615.86328125 37.8512752 615.86328125 31.5 Z"/></g><g transform="translate(-10,-10) scale(1,1)"><path fill="none" stroke="#000000" d="M 615.86328125 31.5 C 615.86328125 25.1487248 621.01200605 20 627.36328125 20 C 633.71455645 20 638.86328125 25.1487248 638.86328125 31.5 C 638.86328125 37.8512752 633.71455645 43 627.36328125 43 C 621.01200605 43 615.86328125 37.8512752 615.86328125 31.5 Z" stroke-miterlimit="10"/></g><g transform="translate(-10,-10) scale(1,1)"><g><path fill="none" stroke="none"/><text fill="#000000" stroke="none" font-family="Arial" font-size="13px" font-style="normal" font-weight="bold" text-decoration="none" x="575.337890625" y="62.5">IResourceContext</text></g></g><g transform="translate(-10,-10) scale(1,1)"><path fill="#C0C0C0" stroke="none" d="M 770.865478515625 38.5 C 770.865478515625 32.1487248 776.014203315625 27 782.365478515625 27 C 788.716753715625 27 793.865478515625 32.1487248 793.865478515625 38.5 C 793.865478515625 44.8512752 788.716753715625 50 782.365478515625 50 C 776.014203315625 50 770.865478515625 44.8512752 770.865478515625 38.5 Z" opacity="0.2"/></g><g transform="translate(-10,-10) scale(1,1)"><path fill="#ffffff" stroke="none" d="M 763.865478515625 31.5 C 763.865478515625 25.1487248 769.014203315625 20 775.365478515625 20 C 781.716753715625 20 786.865478515625 25.1487248 786.865478515625 31.5 C 786.865478515625 37.8512752 781.716753715625 43 775.365478515625 43 C 769.014203315625 43 763.865478515625 37.8512752 763.865478515625 31.5 Z"/></g><g transform="translate(-10,-10) scale(1,1)"><path fill="none" stroke="#000000" d="M 763.865478515625 31.5 C 763.865478515625 25.1487248 769.014203315625 20 775.365478515625 20 C 781.716753715625 20 786.865478515625 25.1487248 786.865478515625 31.5 C 786.865478515625 37.8512752 781.716753715625 43 775.365478515625 43 C 769.014203315625 43 763.865478515625 37.8512752 763.865478515625 31.5 Z" stroke-miterlimit="10"/></g><g transform="translate(-10,-10) scale(1,1)"><g><path fill="none" stroke="none"/><text fill="#000000" stroke="none" font-family="Arial" font-size="13px" font-style="normal" font-weight="bold" text-decoration="none" x="727.6787109375" y="62.5">IStatisticListener</text></g></g><g transform="translate(-10,-10) scale(1,1)"><path fill="#C0C0C0" stroke="none" d="M 912.005859375 38.5 C 912.005859375 32.1487248 917.154584175 27 923.505859375 27 C 929.857134575 27 935.005859375 32.1487248 935.005859375 38.5 C 935.005859375 44.8512752 929.857134575 50 923.505859375 50 C 917.154584175 50 912.005859375 44.8512752 912.005859375 38.5 Z" opacity="0.2"/></g><g transform="translate(-10,-10) scale(1,1)"><path fill="#ffffff" stroke="none" d="M 905.005859375 31.5 C 905.005859375 25.1487248 910.154584175 20 916.505859375 20 C 922.857134575 20 928.005859375 25.1487248 928.005859375 31.5 C 928.005859375 37.8512752 922.857134575 43 916.505859375 43 C 910.154584175 43 905.005859375 37.8512752 905.005859375 31.5 Z"/></g><g transform="translate(-10,-10) scale(1,1)"><path fill="none" stroke="#000000" d="M 905.005859375 31.5 C 905.005859375 25.1487248 910.154584175 20 916.505859375 20 C 922.857134575 20 928.005859375 25.1487248 928.005859375 31.5 C 928.005859375 37.8512752 922.857134575 43 916.505859375 43 C 910.154584175 43 905.005859375 37.8512752 905.005859375 31.5 Z" stroke-miterlimit="10"/></g><g transform="translate(-10,-10) scale(1,1)"><g><path fill="none" stroke="none"/><text fill="#000000" stroke="none" font-family="Arial" font-size="13px" font-style="normal" font-weight="bold" text-decoration="none" x="870.98681640625" y="62.5">ITimeBehaviour</text></g></g><g transform="translate(-10,-10) scale(1,1)"><path fill="#C0C0C0" stroke="none" d="M 1041.939453125 38.5 C 1041.939453125 32.1487248 1047.088177925 27 1053.439453125 27 C 1059.790728325 27 1064.939453125 32.1487248 1064.939453125 38.5 C 1064.939453125 44.8512752 1059.790728325 50 1053.439453125 50 C 1047.088177925 50 1041.939453125 44.8512752 1041.939453125 38.5 Z" opacity="0.2"/></g><g transform="translate(-10,-10) scale(1,1)"><path fill="#ffffff" stroke="none" d="M 1034.939453125 31.5 C 1034.939453125 25.1487248 1040.088177925 20 1046.439453125 20 C 1052.790728325 20 1057.939453125 25.1487248 1057.939453125 31.5 C 1057.939453125 37.8512752 1052.790728325 43 1046.439453125 43 C 1040.088177925 43 1034.939453125 37.8512752 1034.939453125 31.5 Z"/></g><g transform="translate(-10,-10) scale(1,1)"><path fill="none" stroke="#000000" d="M 1034.939453125 31.5 C 1034.939453125 25.1487248 1040.088177925 20 1046.439453125 20 C 1052.790728325 20 1057.939453125 25.1487248 1057.939453125 31.5 C 1057.939453125 37.8512752 1052.790728325 43 1046.439453125 43 C 1040.088177925 43 1034.939453125 37.8512752 1034.939453125 31.5 Z" stroke-miterlimit="10"/></g><g transform="translate(-10,-10) scale(1,1)"><g><path fill="none" stroke="none"/><text fill="#000000" stroke="none" font-family="Arial" font-size="13px" font-style="normal" font-weight="bold" text-decoration="none" x="1007.78857421875" y="62.5">ITimeContext</text></g></g><g transform="translate(-10,-10) scale(1,1)"><path fill="#C0C0C0" stroke="none" d="M 1170.78125 38.5 C 1170.78125 32.1487248 1175.9299748 27 1182.28125 27 C 1188.6325252 27 1193.78125 32.1487248 1193.78125 38.5 C 1193.78125 44.8512752 1188.6325252 50 1182.28125 50 C 1175.9299748 50 1170.78125 44.8512752 1170.78125 38.5 Z" opacity="0.2"/></g><g transform="translate(-10,-10) scale(1,1)"><path fill="#ffffff" stroke="none" d="M 1163.78125 31.5 C 1163.78125 25.1487248 1168.9299748 20 1175.28125 20 C 1181.6325252 20 1186.78125 25.1487248 1186.78125 31.5 C 1186.78125 37.8512752 1181.6325252 43 1175.28125 43 C 1168.9299748 43 1163.78125 37.8512752 1163.78125 31.5 Z"/></g><g transform="translate(-10,-10) scale(1,1)"><path fill="none" stroke="#000000" d="M 1163.78125 31.5 C 1163.78125 25.1487248 1168.9299748 20 1175.28125 20 C 1181.6325252 20 1186.78125 25.1487248 1186.78125 31.5 C 1186.78125 37.8512752 1181.6325252 43 1175.28125 43 C 1168.9299748 43 1163.78125 37.8512752 1163.78125 31.5 Z" stroke-miterlimit="10"/></g><g transform="translate(-10,-10) scale(1,1)"><g><path fill="none" stroke="none"/><text fill="#000000" stroke="none" font-family="Arial" font-size="13px" font-style="normal" font-weight="bold" text-decoration="none" x="1131.199951171875" y="62.5">SubjectContext</text></g></g><g transform="translate(-10,-10) scale(1,1)"><path fill="#C0C0C0" stroke="none" d="M 1331.056640625 38.5 C 1331.056640625 32.1487248 1336.205365425 27 1342.556640625 27 C 1348.907915825 27 1354.056640625 32.1487248 1354.056640625 38.5 C 1354.056640625 44.8512752 1348.907915825 50 1342.556640625 50 C 1336.205365425 50 1331.056640625 44.8512752 1331.056640625 38.5 Z" opacity="0.2"/></g><g transform="translate(-10,-10) scale(1,1)"><path fill="#ffffff" stroke="none" d="M 1324.056640625 31.5 C 1324.056640625 25.1487248 1329.205365425 20 1335.556640625 20 C 1341.907915825 20 1347.056640625 25.1487248 1347.056640625 31.5 C 1347.056640625 37.8512752 1341.907915825 43 1335.556640625 43 C 1329.205365425 43 1324.056640625 37.8512752 1324.056640625 31.5 Z"/></g><g transform="translate(-10,-10) scale(1,1)"><path fill="none" stroke="#000000" d="M 1324.056640625 31.5 C 1324.056640625 25.1487248 1329.205365425 20 1335.556640625 20 C 1341.907915825 20 1347.056640625 25.1487248 1347.056640625 31.5 C 1347.056640625 37.8512752 1341.907915825 43 1335.556640625 43 C 1329.205365425 43 1324.056640625 37.8512752 1324.056640625 31.5 Z" stroke-miterlimit="10"/></g><g transform="translate(-10,-10) scale(1,1)"><g><path fill="none" stroke="none"/><text fill="#000000" stroke="none" font-family="Arial" font-size="13px" font-style="normal" font-weight="bold" text-decoration="none" x="1267.64306640625" y="62.5">TimeRessourceContext</text></g></g><g transform="translate(-10,-10) scale(1,1)"><rect fill="#C0C0C0" stroke="none" x="1450.6611328125" y="39" width="149.84814453125" height="24" opacity="0.2"/></g><g transform="translate(-10,-10) scale(1,1)"><rect fill="#ffffff" stroke="none" x="1443.6611328125" y="32" width="149.84814453125" height="24"/></g><g transform="translate(-10,-10) scale(1,1)"><path fill="none" stroke="#000000" d="M 1443.6611328125 32 L 1593.50927734375 32 L 1593.50927734375 56 L 1443.6611328125 56 L 1443.6611328125 32 Z Z" stroke-miterlimit="10"/></g><g transform="translate(-10,-10) scale(1,1)"><g><path fill="none" stroke="none"/><text fill="#000000" stroke="none" font-family="Arial" font-size="13px" font-style="normal" font-weight="bold" text-decoration="none" x="1452.848876953125" y="51.5">WorkflowTimeMachine</text></g></g></g></svg>