<svg version="1.1" xmlns="http://www.w3.org/2000/svg" xmlns:xlink="http://www.w3.org/1999/xlink" width="764.77685546875" height="191"><defs/><g><g transform="translate(-10,-10) scale(1,1)"><rect fill="#C0C0C0" stroke="none" x="27" y="32.5" width="95.72802734375" height="37" opacity="0.2"/></g><g transform="translate(-10,-10) scale(1,1)"><rect fill="#ffffff" stroke="none" x="20" y="25.5" width="95.72802734375" height="37"/></g><g transform="translate(-10,-10) scale(1,1)"><path fill="none" stroke="#000000" d="M 20 25.5 L 115.72802734375 25.5 L 115.72802734375 62.5 L 20 62.5 L 20 25.5 Z Z" stroke-miterlimit="10"/></g><g transform="translate(-10,-10) scale(1,1)"><g><path fill="none" stroke="none"/><text fill="#000000" stroke="none" font-family="Arial" font-size="13px" font-style="normal" font-weight="normal" text-decoration="none" x="24.5" y="43">«enumeration»</text></g></g><g transform="translate(-10,-10) scale(1,1)"><g><path fill="none" stroke="none"/><text fill="#000000" stroke="none" font-family="Arial" font-size="13px" font-style="normal" font-weight="bold" text-decoration="none" x="30.654052734375" y="58">AccessMode</text></g></g><g transform="translate(-10,-10) scale(1,1)"><rect fill="#C0C0C0" stroke="none" x="275.2164306640625" y="112.5" width="110.86083984375" height="24" opacity="0.2"/></g><g transform="translate(-10,-10) scale(1,1)"><rect fill="#ffffff" stroke="none" x="268.2164306640625" y="105.5" width="110.86083984375" height="24"/></g><g transform="translate(-10,-10) scale(1,1)"><path fill="none" stroke="#000000" d="M 268.2164306640625 105.5 L 379.0772705078125 105.5 L 379.0772705078125 129.5 L 268.2164306640625 129.5 L 268.2164306640625 105.5 Z Z" stroke-miterlimit="10"/></g><g transform="translate(-10,-10) scale(1,1)"><g><path fill="none" stroke="none"/><text fill="#000000" stroke="none" font-family="Arial" font-size="13px" font-style="normal" font-weight="bold" text-decoration="none" x="277.0423583984375" y="125">AnalysisContext</text></g></g><g transform="translate(-10,-10) scale(1,1)"><rect fill="#C0C0C0" stroke="none" x="153.72802734375" y="39" width="171.53173828125" height="24" opacity="0.2"/></g><g transform="translate(-10,-10) scale(1,1)"><rect fill="#ffffff" stroke="none" x="146.72802734375" y="32" width="171.53173828125" height="24"/></g><g transform="translate(-10,-10) scale(1,1)"><path fill="none" stroke="#000000" d="M 146.72802734375 32 L 318.259765625 32 L 318.259765625 56 L 146.72802734375 56 L 146.72802734375 32 Z Z" stroke-miterlimit="10"/></g><g transform="translate(-10,-10) scale(1,1)"><g><path fill="none" stroke="none"/><text fill="#000000" stroke="none" font-family="Arial" font-size="13px" font-style="normal" font-weight="bold" text-decoration="none" x="157.705810546875" y="51.5">AnalysisContextContainer</text></g></g><g transform="translate(-10,-10) scale(1,1)"><path fill="#C0C0C0" stroke="none" d="M 425.47607421875 38.5 C 425.47607421875 32.1487248 430.62479901875 27 436.97607421875 27 C 443.32734941875 27 448.47607421875 32.1487248 448.47607421875 38.5 C 448.47607421875 44.8512752 443.32734941875 50 436.97607421875 50 C 430.62479901875 50 425.47607421875 44.8512752 425.47607421875 38.5 Z" opacity="0.2"/></g><g transform="translate(-10,-10) scale(1,1)"><path fill="#ffffff" stroke="none" d="M 418.47607421875 31.5 C 418.47607421875 25.1487248 423.62479901875 20 429.97607421875 20 C 436.32734941875 20 441.47607421875 25.1487248 441.47607421875 31.5 C 441.47607421875 37.8512752 436.32734941875 43 429.97607421875 43 C 423.62479901875 43 418.47607421875 37.8512752 418.47607421875 31.5 Z"/></g><g transform="translate(-10,-10) scale(1,1)"><path fill="none" stroke="#000000" d="M 418.47607421875 31.5 C 418.47607421875 25.1487248 423.62479901875 20 429.97607421875 20 C 436.32734941875 20 441.47607421875 25.1487248 441.47607421875 31.5 C 441.47607421875 37.8512752 436.32734941875 43 429.97607421875 43 C 423.62479901875 43 418.47607421875 37.8512752 418.47607421875 31.5 Z" stroke-miterlimit="10"/></g><g transform="translate(-10,-10) scale(1,1)"><g><path fill="none" stroke="none"/><text fill="#000000" stroke="none" font-family="Arial" font-size="13px" font-style="normal" font-weight="bold" text-decoration="none" x="360.2470703125" y="62.5">AnalysisContextListener</text></g></g><g transform="translate(-10,-10) scale(1,1)"><path fill="none" stroke="#000000" d="M 323 105 Q 324 84 363 69" stroke-miterlimit="10"/></g><g transform="translate(-10,-10) scale(1,1)"><path fill="none" stroke="#000000" d="M 355.0258408827551 76.57712256551659 L 363 69 L 352.0035832659772 68.71925276189403" stroke-miterlimit="10"/></g><g transform="translate(-10,-10) scale(1,1)"><g><path fill="none" stroke="none"/><text fill="#000000" stroke="none" font-family="Arial" font-size="13px" font-style="normal" font-weight="normal" text-decoration="none" x="307" y="71">-listeners</text></g></g><g transform="translate(-10,-10) scale(1,1)"><g><path fill="none" stroke="none"/><text fill="#000000" stroke="none" font-family="Arial" font-size="13px" font-style="normal" font-weight="normal" text-decoration="none" x="277" y="59">{collection="Set"}</text></g></g><g transform="translate(-10,-10) scale(1,1)"><g><path fill="none" stroke="none"/><text fill="#000000" stroke="none" font-family="Arial" font-size="13px" font-style="normal" font-weight="normal" text-decoration="none" x="345" y="95">*</text></g></g><g transform="translate(-10,-10) scale(1,1)"><path fill="#C0C0C0" stroke="none" d="M 605.2578125 38.5 C 605.2578125 32.1487248 610.4065373 27 616.7578125 27 C 623.1090877 27 628.2578125 32.1487248 628.2578125 38.5 C 628.2578125 44.8512752 623.1090877 50 616.7578125 50 C 610.4065373 50 605.2578125 44.8512752 605.2578125 38.5 Z" opacity="0.2"/></g><g transform="translate(-10,-10) scale(1,1)"><path fill="#ffffff" stroke="none" d="M 598.2578125 31.5 C 598.2578125 25.1487248 603.4065373 20 609.7578125 20 C 616.1090877 20 621.2578125 25.1487248 621.2578125 31.5 C 621.2578125 37.8512752 616.1090877 43 609.7578125 43 C 603.4065373 43 598.2578125 37.8512752 598.2578125 31.5 Z"/></g><g transform="translate(-10,-10) scale(1,1)"><path fill="none" stroke="#000000" d="M 598.2578125 31.5 C 598.2578125 25.1487248 603.4065373 20 609.7578125 20 C 616.1090877 20 621.2578125 25.1487248 621.2578125 31.5 C 621.2578125 37.8512752 616.1090877 43 609.7578125 43 C 603.4065373 43 598.2578125 37.8512752 598.2578125 31.5 Z" stroke-miterlimit="10"/></g><g transform="translate(-10,-10) scale(1,1)"><g><path fill="none" stroke="none"/><text fill="#000000" stroke="none" font-family="Arial" font-size="13px" font-style="normal" font-weight="bold" text-decoration="none" x="549.77880859375" y="62.5">GuardDataContainer</text></g></g><g transform="translate(-10,-10) scale(1,1)"><rect fill="#C0C0C0" stroke="none" x="405.75244140625" y="174" width="62.447265625" height="24" opacity="0.2"/></g><g transform="translate(-10,-10) scale(1,1)"><rect fill="#ffffff" stroke="none" x="398.75244140625" y="167" width="62.447265625" height="24"/></g><g transform="translate(-10,-10) scale(1,1)"><path fill="none" stroke="#000000" d="M 398.75244140625 167 L 461.19970703125 167 L 461.19970703125 191 L 398.75244140625 191 L 398.75244140625 167 Z Z" stroke-miterlimit="10"/></g><g transform="translate(-10,-10) scale(1,1)"><g><path fill="none" stroke="none"/><text fill="#000000" stroke="none" font-family="Arial" font-size="13px" font-style="normal" font-weight="bold" text-decoration="none" x="405.39794921875" y="186.5">Labeling</text></g></g><g transform="translate(-10,-10) scale(1,1)"><path fill="none" stroke="#000000" d="M 343 131 Q 376 152 403 166" stroke-miterlimit="10"/></g><g transform="translate(-10,-10) scale(1,1)"><path fill="none" stroke="#000000" d="M 392.0403260663298 165.05896478937825 L 403 166 L 395.9157526206743 157.5849278631424" stroke-miterlimit="10"/></g><g transform="translate(-10,-10) scale(1,1)"><g><path fill="none" stroke="none"/><text fill="#000000" stroke="none" font-family="Arial" font-size="13px" font-style="normal" font-weight="normal" text-decoration="none" x="362" y="147">-labeling</text></g></g><g transform="translate(-10,-10) scale(1,1)"><path fill="none" stroke="#000000" d="M 462 171 Q 537 152 537 118 Q 537 84 441.47607421875 37.971923828125" stroke-miterlimit="10"/></g><g transform="translate(-10,-10) scale(1,1)"><path fill="none" stroke="#000000" d="M 398 171 Q 324 152 323 131" stroke-miterlimit="10"/></g><g transform="translate(-10,-10) scale(1,1)"><path fill="none" stroke="#000000" d="M 327.68814230973317 140.95094576830212 L 323 131 L 319.2786359863939 141.35139845036588" stroke-miterlimit="10"/></g><g transform="translate(-10,-10) scale(1,1)"><g><path fill="none" stroke="none"/><text fill="#000000" stroke="none" font-family="Arial" font-size="13px" font-style="normal" font-weight="normal" text-decoration="none" x="286" y="164">-context</text></g></g><g transform="translate(-10,-10) scale(1,1)"><rect fill="#C0C0C0" stroke="none" x="192.1964111328125" y="174" width="123.1181640625" height="24" opacity="0.2"/></g><g transform="translate(-10,-10) scale(1,1)"><rect fill="#ffffff" stroke="none" x="185.1964111328125" y="167" width="123.1181640625" height="24"/></g><g transform="translate(-10,-10) scale(1,1)"><path fill="none" stroke="#000000" d="M 185.1964111328125 167 L 308.3145751953125 167 L 308.3145751953125 191 L 185.1964111328125 191 L 185.1964111328125 167 Z Z" stroke-miterlimit="10"/></g><g transform="translate(-10,-10) scale(1,1)"><g><path fill="none" stroke="none"/><text fill="#000000" stroke="none" font-family="Arial" font-size="13px" font-style="normal" font-weight="bold" text-decoration="none" x="193.9937744140625" y="186.5">LabelingContainer</text></g></g><g transform="translate(-10,-10) scale(1,1)"><path fill="none" stroke="#000000" d="M 246 166 Q 247 152 294 131" stroke-miterlimit="10"/></g><g transform="translate(-10,-10) scale(1,1)"><path fill="none" stroke="#000000" d="M 286.43862026701197 138.98908859217107 L 294 131 L 283.0041583966534 131.30243583470187" stroke-miterlimit="10"/></g><g transform="translate(-10,-10) scale(1,1)"><g><path fill="none" stroke="none"/><text fill="#000000" stroke="none" font-family="Arial" font-size="13px" font-style="normal" font-weight="normal" text-decoration="none" x="216" y="134">-analysisContext</text></g></g><g transform="translate(-10,-10) scale(1,1)"><rect fill="#C0C0C0" stroke="none" x="417.0772705078125" y="106" width="95.72802734375" height="37" opacity="0.2"/></g><g transform="translate(-10,-10) scale(1,1)"><rect fill="#ffffff" stroke="none" x="410.0772705078125" y="99" width="95.72802734375" height="37"/></g><g transform="translate(-10,-10) scale(1,1)"><path fill="none" stroke="#000000" d="M 410.0772705078125 99 L 505.8052978515625 99 L 505.8052978515625 136 L 410.0772705078125 136 L 410.0772705078125 99 Z Z" stroke-miterlimit="10"/></g><g transform="translate(-10,-10) scale(1,1)"><g><path fill="none" stroke="none"/><text fill="#000000" stroke="none" font-family="Arial" font-size="13px" font-style="normal" font-weight="normal" text-decoration="none" x="414.5772705078125" y="116.5">«enumeration»</text></g></g><g transform="translate(-10,-10) scale(1,1)"><g><path fill="none" stroke="none"/><text fill="#000000" stroke="none" font-family="Arial" font-size="13px" font-style="normal" font-weight="bold" text-decoration="none" x="418.9222412109375" y="131.5">SecurityLevel</text></g></g><g transform="translate(-10,-10) scale(1,1)"><path fill="none" stroke="#000000" d="M 436 166 Q 443 152 449 137" stroke-miterlimit="10"/></g><g transform="translate(-10,-10) scale(1,1)"><path fill="none" stroke="#000000" d="M 449.13411642738856 147.9991823688811 L 449 137 L 441.31723819473166 144.87243107581833" stroke-miterlimit="10"/></g><g transform="translate(-10,-10) scale(1,1)"><g><path fill="none" stroke="none"/><text fill="#000000" stroke="none" font-family="Arial" font-size="13px" font-style="normal" font-weight="normal" text-decoration="none" x="332" y="162">+DEFAULT_SECURITY_LEVEL</text></g></g><g transform="translate(-10,-10) scale(1,1)"><g><path fill="none" stroke="none"/><text fill="#000000" stroke="none" font-family="Arial" font-size="13px" font-style="normal" font-weight="normal" text-decoration="none" x="348" y="159">{readOnly, static=true}</text></g></g><g transform="translate(-10,-10) scale(1,1)"><path fill="none" stroke="#000000" d="M 450 166 Q 473 152 466 137" stroke-miterlimit="10"/></g><g transform="translate(-10,-10) scale(1,1)"><path fill="none" stroke="#000000" d="M 474.1122415041877 144.42910073816034 L 466 137 L 466.4830534681629 147.98938848830525" stroke-miterlimit="10"/></g><g transform="translate(-10,-10) scale(1,1)"><g><path fill="none" stroke="none"/><text fill="#000000" stroke="none" font-family="Arial" font-size="13px" font-style="normal" font-weight="normal" text-decoration="none" x="403" y="173">-defaultSecurityLevel</text></g></g><g transform="translate(-10,-10) scale(1,1)"><rect fill="#C0C0C0" stroke="none" x="715.8232421875" y="31.5" width="22.381445312499977" height="15" opacity="0.2"/></g><g transform="translate(-10,-10) scale(1,1)"><rect fill="#C0C0C0" stroke="none" x="715.8232421875" y="45.5" width="55.95361328125" height="25" opacity="0.2"/></g><g transform="translate(-10,-10) scale(1,1)"><rect fill="#ffffff" stroke="none" x="708.8232421875" y="39.5" width="55.95361328125" height="24"/></g><g transform="translate(-10,-10) scale(1,1)"><path fill="none" stroke="#000000" d="M 708.8232421875 39.5 L 764.77685546875 39.5 L 764.77685546875 63.5 L 708.8232421875 63.5 L 708.8232421875 39.5 Z Z" stroke-miterlimit="10"/></g><g transform="translate(-10,-10) scale(1,1)"><rect fill="#ffffff" stroke="none" x="708.8232421875" y="24.5" width="22.381445312499977" height="15"/></g><g transform="translate(-10,-10) scale(1,1)"><path fill="none" stroke="#000000" d="M 708.8232421875 24.5 L 731.2046875 24.5 L 731.2046875 39.5 L 708.8232421875 39.5 L 708.8232421875 24.5 Z Z" stroke-miterlimit="10"/></g><g transform="translate(-10,-10) scale(1,1)"><rect fill="#ffffff" stroke="none" x="708.8232421875" y="38.5" width="55.95361328125" height="25"/></g><g transform="translate(-10,-10) scale(1,1)"><path fill="none" stroke="#000000" d="M 708.8232421875 38.5 L 764.77685546875 38.5 L 764.77685546875 63.5 L 708.8232421875 63.5 L 708.8232421875 38.5 Z Z" stroke-miterlimit="10"/></g><g transform="translate(-10,-10) scale(1,1)"><g><path fill="none" stroke="none"/><text fill="#000000" stroke="none" font-family="Arial" font-size="13px" font-style="normal" font-weight="bold" text-decoration="none" x="715.4814453125" y="59">graphic</text></g></g></g></svg>