<svg version="1.1" xmlns="http://www.w3.org/2000/svg" xmlns:xlink="http://www.w3.org/1999/xlink" width="1166.85498046875" height="59"><defs/><g><g transform="translate(-10,-10) scale(1,1)"><rect fill="#C0C0C0" stroke="none" x="27" y="34.5" width="152.76171875" height="24" opacity="0.2"/></g><g transform="translate(-10,-10) scale(1,1)"><rect fill="#ffffff" stroke="none" x="20" y="27.5" width="152.76171875" height="24"/></g><g transform="translate(-10,-10) scale(1,1)"><path fill="none" stroke="#000000" d="M 20 27.5 L 172.76171875 27.5 L 172.76171875 51.5 L 20 51.5 L 20 27.5 Z Z" stroke-miterlimit="10"/></g><g transform="translate(-10,-10) scale(1,1)"><g><path fill="none" stroke="none"/><text fill="#000000" stroke="none" font-family="Arial" font-size="13px" font-style="italic" font-weight="bold" text-decoration="none" x="29.543212890625" y="47">NetCheckingProperties</text></g></g><g transform="translate(-10,-10) scale(1,1)"><rect fill="#C0C0C0" stroke="none" x="210.76171875" y="34.5" width="91.36083984375" height="24" opacity="0.2"/></g><g transform="translate(-10,-10) scale(1,1)"><rect fill="#ffffff" stroke="none" x="203.76171875" y="27.5" width="91.36083984375" height="24"/></g><g transform="translate(-10,-10) scale(1,1)"><path fill="none" stroke="#000000" d="M 203.76171875 27.5 L 295.12255859375 27.5 L 295.12255859375 51.5 L 203.76171875 51.5 L 203.76171875 27.5 Z Z" stroke-miterlimit="10"/></g><g transform="translate(-10,-10) scale(1,1)"><g><path fill="none" stroke="none"/><text fill="#000000" stroke="none" font-family="Arial" font-size="13px" font-style="normal" font-weight="bold" text-decoration="none" x="210.7880859375" y="47">PNProperties</text></g></g><g transform="translate(-10,-10) scale(1,1)"><rect fill="#C0C0C0" stroke="none" x="333.12255859375" y="28" width="160.70263671875" height="37" opacity="0.2"/></g><g transform="translate(-10,-10) scale(1,1)"><rect fill="#ffffff" stroke="none" x="326.12255859375" y="21" width="160.70263671875" height="37"/></g><g transform="translate(-10,-10) scale(1,1)"><path fill="none" stroke="#000000" d="M 326.12255859375 21 L 486.8251953125 21 L 486.8251953125 58 L 326.12255859375 58 L 326.12255859375 21 Z Z" stroke-miterlimit="10"/></g><g transform="translate(-10,-10) scale(1,1)"><g><path fill="none" stroke="none"/><text fill="#000000" stroke="none" font-family="Arial" font-size="13px" font-style="normal" font-weight="normal" text-decoration="none" x="363.10986328125" y="38.5">«enumeration»</text></g></g><g transform="translate(-10,-10) scale(1,1)"><g><path fill="none" stroke="none"/><text fill="#000000" stroke="none" font-family="Arial" font-size="13px" font-style="normal" font-weight="bold" text-decoration="none" x="336.38623046875" y="53.5">PropertyCheckingResult</text></g></g><g transform="translate(-10,-10) scale(1,1)"><rect fill="#C0C0C0" stroke="none" x="524.8251953125" y="27" width="37.402539062499955" height="15" opacity="0.2"/></g><g transform="translate(-10,-10) scale(1,1)"><rect fill="#C0C0C0" stroke="none" x="524.8251953125" y="41" width="93.50634765625" height="25" opacity="0.2"/></g><g transform="translate(-10,-10) scale(1,1)"><rect fill="#ffffff" stroke="none" x="517.8251953125" y="35" width="93.50634765625" height="24"/></g><g transform="translate(-10,-10) scale(1,1)"><path fill="none" stroke="#000000" d="M 517.8251953125 35 L 611.33154296875 35 L 611.33154296875 59 L 517.8251953125 59 L 517.8251953125 35 Z Z" stroke-miterlimit="10"/></g><g transform="translate(-10,-10) scale(1,1)"><rect fill="#ffffff" stroke="none" x="517.8251953125" y="20" width="37.402539062499955" height="15"/></g><g transform="translate(-10,-10) scale(1,1)"><path fill="none" stroke="#000000" d="M 517.8251953125 20 L 555.227734375 20 L 555.227734375 35 L 517.8251953125 35 L 517.8251953125 20 Z Z" stroke-miterlimit="10"/></g><g transform="translate(-10,-10) scale(1,1)"><rect fill="#ffffff" stroke="none" x="517.8251953125" y="34" width="93.50634765625" height="25"/></g><g transform="translate(-10,-10) scale(1,1)"><path fill="none" stroke="#000000" d="M 517.8251953125 34 L 611.33154296875 34 L 611.33154296875 59 L 517.8251953125 59 L 517.8251953125 34 Z Z" stroke-miterlimit="10"/></g><g transform="translate(-10,-10) scale(1,1)"><g><path fill="none" stroke="none"/><text fill="#000000" stroke="none" font-family="Arial" font-size="13px" font-style="normal" font-weight="bold" text-decoration="none" x="525.54345703125" y="54.5">boundedness</text></g></g><g transform="translate(-10,-10) scale(1,1)"><rect fill="#C0C0C0" stroke="none" x="649.33154296875" y="27" width="19.600000000000023" height="15" opacity="0.2"/></g><g transform="translate(-10,-10) scale(1,1)"><rect fill="#C0C0C0" stroke="none" x="649.33154296875" y="41" width="49" height="25" opacity="0.2"/></g><g transform="translate(-10,-10) scale(1,1)"><rect fill="#ffffff" stroke="none" x="642.33154296875" y="35" width="49" height="24"/></g><g transform="translate(-10,-10) scale(1,1)"><path fill="none" stroke="#000000" d="M 642.33154296875 35 L 691.33154296875 35 L 691.33154296875 59 L 642.33154296875 59 L 642.33154296875 35 Z Z" stroke-miterlimit="10"/></g><g transform="translate(-10,-10) scale(1,1)"><rect fill="#ffffff" stroke="none" x="642.33154296875" y="20" width="19.600000000000023" height="15"/></g><g transform="translate(-10,-10) scale(1,1)"><path fill="none" stroke="#000000" d="M 642.33154296875 20 L 661.93154296875 20 L 661.93154296875 35 L 642.33154296875 35 L 642.33154296875 20 Z Z" stroke-miterlimit="10"/></g><g transform="translate(-10,-10) scale(1,1)"><rect fill="#ffffff" stroke="none" x="642.33154296875" y="34" width="49" height="25"/></g><g transform="translate(-10,-10) scale(1,1)"><path fill="none" stroke="#000000" d="M 642.33154296875 34 L 691.33154296875 34 L 691.33154296875 59 L 642.33154296875 59 L 642.33154296875 34 Z Z" stroke-miterlimit="10"/></g><g transform="translate(-10,-10) scale(1,1)"><g><path fill="none" stroke="none"/><text fill="#000000" stroke="none" font-family="Arial" font-size="13px" font-style="normal" font-weight="bold" text-decoration="none" x="652.37158203125" y="54.5">dead</text></g></g><g transform="translate(-10,-10) scale(1,1)"><rect fill="#C0C0C0" stroke="none" x="729.33154296875" y="27" width="19.600000000000023" height="15" opacity="0.2"/></g><g transform="translate(-10,-10) scale(1,1)"><rect fill="#C0C0C0" stroke="none" x="729.33154296875" y="41" width="49" height="25" opacity="0.2"/></g><g transform="translate(-10,-10) scale(1,1)"><rect fill="#ffffff" stroke="none" x="722.33154296875" y="35" width="49" height="24"/></g><g transform="translate(-10,-10) scale(1,1)"><path fill="none" stroke="#000000" d="M 722.33154296875 35 L 771.33154296875 35 L 771.33154296875 59 L 722.33154296875 59 L 722.33154296875 35 Z Z" stroke-miterlimit="10"/></g><g transform="translate(-10,-10) scale(1,1)"><rect fill="#ffffff" stroke="none" x="722.33154296875" y="20" width="19.600000000000023" height="15"/></g><g transform="translate(-10,-10) scale(1,1)"><path fill="none" stroke="#000000" d="M 722.33154296875 20 L 741.93154296875 20 L 741.93154296875 35 L 722.33154296875 35 L 722.33154296875 20 Z Z" stroke-miterlimit="10"/></g><g transform="translate(-10,-10) scale(1,1)"><rect fill="#ffffff" stroke="none" x="722.33154296875" y="34" width="49" height="25"/></g><g transform="translate(-10,-10) scale(1,1)"><path fill="none" stroke="#000000" d="M 722.33154296875 34 L 771.33154296875 34 L 771.33154296875 59 L 722.33154296875 59 L 722.33154296875 34 Z Z" stroke-miterlimit="10"/></g><g transform="translate(-10,-10) scale(1,1)"><g><path fill="none" stroke="none"/><text fill="#000000" stroke="none" font-family="Arial" font-size="13px" font-style="normal" font-weight="bold" text-decoration="none" x="737.802001953125" y="54.5">mg</text></g></g><g transform="translate(-10,-10) scale(1,1)"><rect fill="#C0C0C0" stroke="none" x="809.33154296875" y="27" width="30.481054687499977" height="15" opacity="0.2"/></g><g transform="translate(-10,-10) scale(1,1)"><rect fill="#C0C0C0" stroke="none" x="809.33154296875" y="41" width="76.20263671875" height="25" opacity="0.2"/></g><g transform="translate(-10,-10) scale(1,1)"><rect fill="#ffffff" stroke="none" x="802.33154296875" y="35" width="76.20263671875" height="24"/></g><g transform="translate(-10,-10) scale(1,1)"><path fill="none" stroke="#000000" d="M 802.33154296875 35 L 878.5341796875 35 L 878.5341796875 59 L 802.33154296875 59 L 802.33154296875 35 Z Z" stroke-miterlimit="10"/></g><g transform="translate(-10,-10) scale(1,1)"><rect fill="#ffffff" stroke="none" x="802.33154296875" y="20" width="30.481054687499977" height="15"/></g><g transform="translate(-10,-10) scale(1,1)"><path fill="none" stroke="#000000" d="M 802.33154296875 20 L 832.81259765625 20 L 832.81259765625 35 L 802.33154296875 35 L 802.33154296875 20 Z Z" stroke-miterlimit="10"/></g><g transform="translate(-10,-10) scale(1,1)"><rect fill="#ffffff" stroke="none" x="802.33154296875" y="34" width="76.20263671875" height="25"/></g><g transform="translate(-10,-10) scale(1,1)"><path fill="none" stroke="#000000" d="M 802.33154296875 34 L 878.5341796875 34 L 878.5341796875 59 L 802.33154296875 59 L 802.33154296875 34 Z Z" stroke-miterlimit="10"/></g><g transform="translate(-10,-10) scale(1,1)"><g><path fill="none" stroke="none"/><text fill="#000000" stroke="none" font-family="Arial" font-size="13px" font-style="normal" font-weight="bold" text-decoration="none" x="808.992919921875" y="54.5">sequences</text></g></g><g transform="translate(-10,-10) scale(1,1)"><rect fill="#C0C0C0" stroke="none" x="916.5341796875" y="27" width="31.0498046875" height="15" opacity="0.2"/></g><g transform="translate(-10,-10) scale(1,1)"><rect fill="#C0C0C0" stroke="none" x="916.5341796875" y="41" width="77.62451171875" height="25" opacity="0.2"/></g><g transform="translate(-10,-10) scale(1,1)"><rect fill="#ffffff" stroke="none" x="909.5341796875" y="35" width="77.62451171875" height="24"/></g><g transform="translate(-10,-10) scale(1,1)"><path fill="none" stroke="#000000" d="M 909.5341796875 35 L 987.15869140625 35 L 987.15869140625 59 L 909.5341796875 59 L 909.5341796875 35 Z Z" stroke-miterlimit="10"/></g><g transform="translate(-10,-10) scale(1,1)"><rect fill="#ffffff" stroke="none" x="909.5341796875" y="20" width="31.0498046875" height="15"/></g><g transform="translate(-10,-10) scale(1,1)"><path fill="none" stroke="#000000" d="M 909.5341796875 20 L 940.583984375 20 L 940.583984375 35 L 909.5341796875 35 L 909.5341796875 20 Z Z" stroke-miterlimit="10"/></g><g transform="translate(-10,-10) scale(1,1)"><rect fill="#ffffff" stroke="none" x="909.5341796875" y="34" width="77.62451171875" height="25"/></g><g transform="translate(-10,-10) scale(1,1)"><path fill="none" stroke="#000000" d="M 909.5341796875 34 L 987.15869140625 34 L 987.15869140625 59 L 909.5341796875 59 L 909.5341796875 34 Z Z" stroke-miterlimit="10"/></g><g transform="translate(-10,-10) scale(1,1)"><g><path fill="none" stroke="none"/><text fill="#000000" stroke="none" font-family="Arial" font-size="13px" font-style="normal" font-weight="bold" text-decoration="none" x="916.906494140625" y="54.5">soundness</text></g></g><g transform="translate(-10,-10) scale(1,1)"><rect fill="#C0C0C0" stroke="none" x="1025.15869140625" y="27" width="25.560351562500045" height="15" opacity="0.2"/></g><g transform="translate(-10,-10) scale(1,1)"><rect fill="#C0C0C0" stroke="none" x="1025.15869140625" y="41" width="63.90087890625" height="25" opacity="0.2"/></g><g transform="translate(-10,-10) scale(1,1)"><rect fill="#ffffff" stroke="none" x="1018.15869140625" y="35" width="63.90087890625" height="24"/></g><g transform="translate(-10,-10) scale(1,1)"><path fill="none" stroke="#000000" d="M 1018.15869140625 35 L 1082.0595703125 35 L 1082.0595703125 59 L 1018.15869140625 59 L 1018.15869140625 35 Z Z" stroke-miterlimit="10"/></g><g transform="translate(-10,-10) scale(1,1)"><rect fill="#ffffff" stroke="none" x="1018.15869140625" y="20" width="25.560351562500045" height="15"/></g><g transform="translate(-10,-10) scale(1,1)"><path fill="none" stroke="#000000" d="M 1018.15869140625 20 L 1043.71904296875 20 L 1043.71904296875 35 L 1018.15869140625 35 L 1018.15869140625 20 Z Z" stroke-miterlimit="10"/></g><g transform="translate(-10,-10) scale(1,1)"><rect fill="#ffffff" stroke="none" x="1018.15869140625" y="34" width="63.90087890625" height="25"/></g><g transform="translate(-10,-10) scale(1,1)"><path fill="none" stroke="#000000" d="M 1018.15869140625 34 L 1082.0595703125 34 L 1082.0595703125 59 L 1018.15869140625 59 L 1018.15869140625 34 Z Z" stroke-miterlimit="10"/></g><g transform="translate(-10,-10) scale(1,1)"><g><path fill="none" stroke="none"/><text fill="#000000" stroke="none" font-family="Arial" font-size="13px" font-style="normal" font-weight="bold" text-decoration="none" x="1024.44873046875" y="54.5">threaded</text></g></g><g transform="translate(-10,-10) scale(1,1)"><rect fill="#C0C0C0" stroke="none" x="1120.0595703125" y="27" width="21.51816406250009" height="15" opacity="0.2"/></g><g transform="translate(-10,-10) scale(1,1)"><rect fill="#C0C0C0" stroke="none" x="1120.0595703125" y="41" width="53.79541015625" height="25" opacity="0.2"/></g><g transform="translate(-10,-10) scale(1,1)"><rect fill="#ffffff" stroke="none" x="1113.0595703125" y="35" width="53.79541015625" height="24"/></g><g transform="translate(-10,-10) scale(1,1)"><path fill="none" stroke="#000000" d="M 1113.0595703125 35 L 1166.85498046875 35 L 1166.85498046875 59 L 1113.0595703125 59 L 1113.0595703125 35 Z Z" stroke-miterlimit="10"/></g><g transform="translate(-10,-10) scale(1,1)"><rect fill="#ffffff" stroke="none" x="1113.0595703125" y="20" width="21.51816406250009" height="15"/></g><g transform="translate(-10,-10) scale(1,1)"><path fill="none" stroke="#000000" d="M 1113.0595703125 20 L 1134.577734375 20 L 1134.577734375 35 L 1113.0595703125 35 L 1113.0595703125 20 Z Z" stroke-miterlimit="10"/></g><g transform="translate(-10,-10) scale(1,1)"><rect fill="#ffffff" stroke="none" x="1113.0595703125" y="34" width="53.79541015625" height="25"/></g><g transform="translate(-10,-10) scale(1,1)"><path fill="none" stroke="#000000" d="M 1113.0595703125 34 L 1166.85498046875 34 L 1166.85498046875 59 L 1113.0595703125 59 L 1113.0595703125 34 Z Z" stroke-miterlimit="10"/></g><g transform="translate(-10,-10) scale(1,1)"><g><path fill="none" stroke="none"/><text fill="#000000" stroke="none" font-family="Arial" font-size="13px" font-style="normal" font-weight="bold" text-decoration="none" x="1120.089111328125" y="54.5">validity</text></g></g></g></svg>